<svg xmlns="http://www.w3.org/2000/svg" viewBox="0 0 64 64" width="64" height="64">
  <defs>
    <style>
      .logo-shape { fill: currentColor; }
      .logo-accent { fill: currentColor; opacity: 0.7; }
    </style>
  </defs>

  <!-- Modern stylized "T" with data flow design -->
  <g class="logo-shape">
    <!-- Top horizontal bar with geometric cut -->
    <path d="M 12 18 L 52 18 L 52 24 L 35 24 L 35 26 L 29 26 L 29 24 L 12 24 Z" rx="2"/>

    <!-- Vertical stem -->
    <rect x="27" y="24" width="10" height="32" rx="2"/>

    <!-- Data nodes (representing data points/network) -->
    <circle cx="18" cy="32" r="2.5" />
    <circle cx="46" cy="32" r="2.5" />
    <circle cx="18" cy="44" r="2.5" />
    <circle cx="46" cy="44" r="2.5" />

    <!-- Connection lines (data flow) -->
    <line x1="20" y1="32" x2="27" y2="32" stroke="currentColor" stroke-width="1.5" opacity="0.5"/>
    <line x1="37" y1="32" x2="44" y2="32" stroke="currentColor" stroke-width="1.5" opacity="0.5"/>
    <line x1="20" y1="44" x2="27" y2="44" stroke="currentColor" stroke-width="1.5" opacity="0.5"/>
    <line x1="37" y1="44" x2="44" y2="44" stroke="currentColor" stroke-width="1.5" opacity="0.5"/>
  </g>

  <!-- Accent corner elements (tech feel) -->
  <g class="logo-accent">
    <rect x="8" y="8" width="6" height="2" rx="1"/>
    <rect x="8" y="8" width="2" height="6" rx="1"/>
    <rect x="50" y="8" width="6" height="2" rx="1"/>
    <rect x="54" y="8" width="2" height="6" rx="1"/>
    <rect x="8" y="54" width="6" height="2" rx="1"/>
    <rect x="8" y="50" width="2" height="6" rx="1"/>
    <rect x="50" y="54" width="6" height="2" rx="1"/>
    <rect x="54" y="50" width="2" height="6" rx="1"/>
  </g>
</svg>
